<?xml version="1.0" standalone="no"?>
<!DOCTYPE svg PUBLIC "-//W3C//DTD SVG 20010904//EN"
 "http://www.w3.org/TR/2001/REC-SVG-20010904/DTD/svg10.dtd">
<svg version="1.0" xmlns="http://www.w3.org/2000/svg"
 width="700.000000pt" height="700.000000pt" viewBox="0 0 700.000000 700.000000"
 preserveAspectRatio="xMidYMid meet">
<metadata>
Created by potrace 1.11, written by Peter Selinger 2001-2013
</metadata>
<g transform="translate(0.000000,700.000000) scale(0.100000,-0.100000)"
fill="#000000" stroke="none">
<path d="M4865 6988 c-2 -7 -22 -74 -44 -148 -21 -74 -63 -214 -91 -310 -29
-96 -53 -179 -55 -185 -1 -5 -5 -17 -8 -25 -3 -8 -18 -58 -32 -110 -15 -52
-33 -113 -40 -135 -8 -22 -62 -202 -120 -400 -58 -198 -117 -396 -130 -440
-14 -44 -88 -294 -165 -555 -78 -261 -158 -533 -180 -605 -21 -71 -71 -238
-110 -370 -77 -259 -106 -357 -150 -505 -39 -129 -137 -459 -161 -545 -11 -38
-24 -81 -29 -95 -5 -14 -19 -58 -30 -98 -12 -41 -23 -72 -26 -70 -2 3 -24 74
-49 159 -25 85 -57 190 -70 234 -13 44 -38 127 -55 185 -17 58 -35 116 -40
130 -5 14 -50 165 -100 335 -50 171 -95 321 -100 335 -5 14 -28 90 -51 170
-23 80 -44 148 -48 152 -4 4 -27 -11 -51 -32 -174 -155 -467 -285 -730 -324
-118 -17 -182 -24 -236 -25 l-32 -1 35 -117 c19 -65 43 -147 54 -183 10 -36
37 -126 60 -200 22 -74 45 -148 49 -165 4 -16 40 -138 80 -270 39 -132 89
-299 110 -370 21 -72 71 -238 110 -370 40 -132 73 -247 75 -255 2 -8 22 -76
45 -150 22 -74 50 -166 61 -205 12 -38 29 -97 40 -130 20 -66 108 -363 170
-575 22 -74 50 -169 63 -210 35 -115 56 -183 61 -205 3 -11 24 -84 47 -162
l43 -143 466 0 467 0 7 33 c9 40 -14 -38 185 627 95 316 180 604 190 640 10
36 41 142 70 235 70 235 259 869 266 895 2 8 40 137 84 285 45 149 94 313 110
365 78 264 102 348 145 490 42 141 258 866 357 1200 22 74 55 185 73 245 18
61 53 180 78 265 25 85 87 292 137 460 50 168 93 312 95 320 2 8 8 26 13 40 5
14 10 28 10 33 1 4 13 47 27 95 14 48 35 116 45 152 11 36 55 186 100 334 44
148 80 273 80 277 0 5 -263 9 -585 9 -460 0 -587 -3 -590 -12z"/>
<path d="M964 6979 c-2 -4 26 -108 62 -230 36 -123 72 -244 79 -269 7 -25 32
-108 55 -185 23 -77 64 -216 92 -310 27 -93 63 -215 80 -270 16 -55 47 -158
68 -230 38 -128 59 -200 180 -605 34 -113 63 -212 65 -220 2 -8 6 -28 10 -44
l8 -28 81 6 c390 29 711 153 942 363 30 27 30 29 -1 127 -45 148 -166 561
-171 585 -3 14 -7 27 -9 31 -2 3 -19 60 -39 125 -19 66 -83 282 -141 480 -59
198 -111 374 -115 390 -5 17 -25 88 -47 160 l-38 129 -578 1 c-319 0 -581 -3
-583 -6z"/>
</g>
</svg>
