<svg fill="currentColor" xmlns="http://www.w3.org/2000/svg" viewBox="0 0 78.55 78.38"><title>English</title><path d="M78.26 34.46A39.18 39.18 0 0 0 .18 39.19a39 39 0 0 0 8.19 24A46.24 46.24 0 0 1 0 77.21s10.69 1.6 17.76-5.33a39.17 39.17 0 0 0 60.5-37.42zM35.81 52.81a1 1 0 0 1-.33.78 1.12 1.12 0 0 1-.8.3H14a1.11 1.11 0 0 1-1.08-1.08v-28a1.14 1.14 0 0 1 .3-.8 1 1 0 0 1 .78-.32h20.34a1.09 1.09 0 0 1 1.12 1.12v4.27a1 1 0 0 1-.32.78 1.14 1.14 0 0 1-.8.3H20.71v5.48h12.68a1.09 1.09 0 0 1 1.12 1.12v3.93a1.11 1.11 0 0 1-1.12 1.12H20.71v5.61h14a1.06 1.06 0 0 1 .8.32 1.08 1.08 0 0 1 .33.8zm30 0a1.11 1.11 0 0 1-.3.79 1 1 0 0 1-.78.33h-4.85a1.6 1.6 0 0 1-1.47-.82L48.27 37.62v15.19a1 1 0 0 1-.32.78 1.12 1.12 0 0 1-.8.3h-5.48a1 1 0 0 1-.75-.33 1 1 0 0 1-.32-.75v-28a1.14 1.14 0 0 1 .3-.8 1 1 0 0 1 .77-.32h4.88a1.58 1.58 0 0 1 1.47.82L58.2 40.6V24.81a1.14 1.14 0 0 1 .3-.8 1 1 0 0 1 .78-.32h5.47a1 1 0 0 1 .78.32 1.14 1.14 0 0 1 .3.8z" /></svg>