<svg width="1441" height="224" viewBox="0 0 1441 224" fill="none" xmlns="http://www.w3.org/2000/svg">
<path fill-rule="evenodd" clip-rule="evenodd" d="M243.853 213.598C255.646 220.308 268.863 223.663 283.503 223.663C297.94 223.663 311.055 220.308 322.848 213.598C334.641 206.888 343.893 197.636 350.603 185.843C357.516 173.846 360.973 160.019 360.973 144.363C360.973 128.706 357.516 114.981 350.603 103.188C343.893 91.1909 334.641 81.8376 322.848 75.1276C311.258 68.4176 298.245 65.0626 283.808 65.0626C269.168 65.0626 255.951 68.4176 244.158 75.1276C232.568 81.8376 223.316 91.1909 216.403 103.188C209.49 114.981 206.033 128.706 206.033 144.363C206.033 160.019 209.388 173.846 216.098 185.843C223.011 197.636 232.263 206.888 243.853 213.598ZM310.038 178.523C302.515 186.046 293.67 189.808 283.503 189.808C273.336 189.808 264.491 186.046 256.968 178.523C249.648 170.796 245.988 159.409 245.988 144.363C245.988 129.316 249.648 118.031 256.968 110.508C264.491 102.781 273.438 98.9176 283.808 98.9176C293.771 98.9176 302.515 102.781 310.038 110.508C317.561 118.031 321.323 129.316 321.323 144.363C321.323 159.409 317.561 170.796 310.038 178.523Z" fill="#0090BD"/>
<path d="M419.202 208.413C428.759 216.139 441.467 220.003 457.327 220.003H483.862V186.758H464.952C457.225 186.758 451.735 185.436 448.482 182.793C445.432 179.946 443.907 174.863 443.907 167.543V101.358H484.777V68.7226H443.907V28.1576H409.442L404.867 68.7226H378.942V101.358H404.867V167.238C404.867 186.961 409.645 200.686 419.202 208.413Z" fill="#0090BD"/>
<path fill-rule="evenodd" clip-rule="evenodd" d="M547.364 213.903C559.157 220.409 572.679 223.663 587.929 223.663C600.129 223.663 611.007 221.426 620.564 216.953C630.324 212.479 638.457 206.379 644.964 198.653C651.674 190.723 656.452 181.979 659.299 172.423H619.649C617.005 178.116 612.939 182.793 607.449 186.453C602.162 189.909 595.554 191.638 587.624 191.638C577.05 191.638 568.002 188.283 560.479 181.573C553.159 174.863 549.092 165.611 548.279 153.818H663.264C663.467 151.174 663.569 148.633 663.569 146.193C663.772 143.753 663.874 141.414 663.874 139.178C663.874 125.351 660.62 112.846 654.114 101.663C647.81 90.2759 638.966 81.3293 627.579 74.8226C616.192 68.3159 603.077 65.0626 588.234 65.0626C572.374 65.0626 558.547 68.5193 546.754 75.4326C535.164 82.1426 526.014 91.5976 519.304 103.798C512.797 115.998 509.544 129.926 509.544 145.583C509.544 161.036 512.899 174.659 519.609 186.453C526.319 198.246 535.57 207.396 547.364 213.903ZM562.919 105.018C570.239 99.5276 578.677 96.7826 588.234 96.7826C598.197 96.7826 606.534 99.7309 613.244 105.628C619.954 111.524 623.614 119.454 624.224 129.418H548.889C550.922 118.438 555.599 110.304 562.919 105.018Z" fill="#0090BD"/>
<path d="M66.9241 77.1069C51.172 76.9439 36.3644 75.2571 23.6092 69.4995L0.570312 6.50259H42.3553L66.9241 77.1069Z" fill="#0090BD"/>
<path d="M697.624 220.003V6.50259H736.664V189.503H831.214V220.003H697.624Z" fill="#EE215A"/>
<path fill-rule="evenodd" clip-rule="evenodd" d="M930.437 223.663C915.797 223.663 902.58 220.308 890.787 213.598C879.197 206.888 869.945 197.636 863.032 185.843C856.322 173.846 852.967 160.019 852.967 144.363C852.967 128.706 856.423 114.981 863.337 103.188C870.25 91.1909 879.502 81.8376 891.092 75.1276C902.885 68.4176 916.102 65.0626 930.742 65.0626C945.178 65.0626 958.192 68.4176 969.782 75.1276C981.575 81.8376 990.827 91.1909 997.537 103.188C1004.45 114.981 1007.91 128.706 1007.91 144.363C1007.91 160.019 1004.45 173.846 997.537 185.843C990.827 197.636 981.575 206.888 969.782 213.598C957.988 220.308 944.873 223.663 930.437 223.663ZM956.972 178.523C949.448 186.046 940.603 189.808 930.437 189.808C920.27 189.808 911.425 186.046 903.902 178.523C896.582 170.796 892.922 159.409 892.922 144.363C892.922 129.316 896.582 118.031 903.902 110.508C911.425 102.781 920.372 98.9176 930.742 98.9176C940.705 98.9176 949.448 102.781 956.972 110.508C964.495 118.031 968.257 129.316 968.257 144.363C968.257 159.409 964.495 170.796 956.972 178.523Z" fill="#EE215A"/>
<path d="M1116.93 223.663C1101.47 223.663 1087.85 220.308 1076.06 213.598C1064.26 206.888 1054.91 197.534 1048 185.538C1041.29 173.541 1037.93 159.816 1037.93 144.363C1037.93 128.909 1041.29 115.184 1048 103.188C1054.91 91.1909 1064.26 81.8376 1076.06 75.1276C1087.85 68.4176 1101.47 65.0626 1116.93 65.0626C1136.24 65.0626 1152.51 70.1459 1165.73 80.3126C1178.94 90.2759 1187.38 104.103 1191.04 121.793H1149.87C1147.83 114.473 1143.77 108.779 1137.67 104.713C1131.77 100.443 1124.76 98.3076 1116.62 98.3076C1105.85 98.3076 1096.7 102.374 1089.17 110.508C1081.65 118.641 1077.89 129.926 1077.89 144.363C1077.89 158.799 1081.65 170.084 1089.17 178.218C1096.7 186.351 1105.85 190.418 1116.62 190.418C1124.76 190.418 1131.77 188.384 1137.67 184.318C1143.77 180.251 1147.83 174.456 1149.87 166.933H1191.04C1187.38 184.013 1178.94 197.738 1165.73 208.108C1152.51 218.478 1136.24 223.663 1116.93 223.663Z" fill="#EE215A"/>
<path fill-rule="evenodd" clip-rule="evenodd" d="M1277.85 223.663C1264.84 223.663 1254.16 221.629 1245.82 217.563C1237.49 213.293 1231.29 207.701 1227.22 200.788C1223.15 193.874 1221.12 186.249 1221.12 177.913C1221.12 163.883 1226.61 152.496 1237.59 143.753C1248.57 135.009 1265.04 130.638 1287 130.638H1325.43V126.978C1325.43 116.608 1322.48 108.983 1316.58 104.103C1310.69 99.2226 1303.37 96.7826 1294.62 96.7826C1286.69 96.7826 1279.78 98.7143 1273.88 102.578C1267.99 106.238 1264.33 111.728 1262.9 119.048H1224.78C1225.8 108.068 1229.46 98.5109 1235.76 90.3776C1242.27 82.2443 1250.6 76.0426 1260.77 71.7726C1270.94 67.2993 1282.32 65.0626 1294.93 65.0626C1316.48 65.0626 1333.46 70.4509 1345.86 81.2276C1358.27 92.0043 1364.47 107.254 1364.47 126.978V220.003H1331.22L1327.56 195.603C1323.09 203.736 1316.79 210.446 1308.65 215.733C1300.72 221.019 1290.46 223.663 1277.85 223.663ZM1312.62 182.183C1306.52 189.503 1297.88 193.163 1286.69 193.163C1279.37 193.163 1273.48 191.536 1269 188.283C1264.53 185.029 1262.29 180.454 1262.29 174.558C1262.29 169.068 1264.53 164.493 1269 160.833C1273.48 156.969 1280.9 155.038 1291.27 155.038H1324.51C1322.89 165.814 1318.92 174.863 1312.62 182.183Z" fill="#EE215A"/>
<path d="M1401.72 220.003V0.402588H1440.76V220.003H1401.72Z" fill="#EE215A"/>
<path d="M78.6503 220.003L38.5445 110.338C39.2383 110.686 39.9489 111.026 40.677 111.359C58.1629 119.359 68.7626 121.066 82.1948 120.991L102.745 180.048L163.44 6.50259H204.615L126.535 220.003H78.6503Z" fill="#EE215A"/>
</svg>
