<svg viewBox="0 0 370.4 116.1" xmlns="http://www.w3.org/2000/svg"><path d="m65.3 80.21a66.32 66.32 0 0 1 -.57-8.64 74.14 74.14 0 0 1 .51-8.64 62.31 62.31 0 0 1 1.76-8.84 57.87 57.87 0 0 1 3-8.5 38 38 0 0 1 4.43-7.59 32.27 32.27 0 0 1 6.09-6.15q7.28-5.55 17.69-5.55 14.31 0 22.89 11.79 9.27 12.82 9.27 33.48 0 21.06-8.92 33.2-8.37 11.33-23.24 11.33-14.14 0-23.18-11.39-7.68-9.61-9.73-24.5zm14.16-21.09c-.4 2.27-.67 4.4-.83 6.39s-.22 4-.22 6.09.07 4.13.22 6.15.43 4.16.83 6.41a47.93 47.93 0 0 0 1.54 6.24 26.74 26.74 0 0 0 2.49 5.52 21.52 21.52 0 0 0 3.51 4.56 15.65 15.65 0 0 0 11.1 4.12q18.6 0 18.6-33.09 0-27-12.59-32.5a14.88 14.88 0 0 0 -6.11-1.21 15.52 15.52 0 0 0 -6.17 1.2 15.09 15.09 0 0 0 -4.83 3.18 21.77 21.77 0 0 0 -3.53 4.82 29.58 29.58 0 0 0 -2.47 5.74 53.28 53.28 0 0 0 -1.54 6.38z" fill="#ee215a"/><path d="m131.1 39.4v-11.5h60.5v11.5h-23.4v75.2h-13.7v-75.2z" fill="#ee215a"/><path d="m351.4 0h-77.7a19.14 19.14 0 0 0 -19.1 19l-.1 18.1s1.5 13.7-9.8 26.3c0 0 9.7 1.4 15.9-4.8l.2-.2a19.12 19.12 0 0 0 12.9 5h77.7a19 19 0 0 0 19-19v-25.4a19 19 0 0 0 -19-19zm-69.1 47.1a1.32 1.32 0 0 1 -1.3 1.3h-10a1.32 1.32 0 0 1 -1.3-1.3v-31.7a1.32 1.32 0 0 1 1.3-1.3h10a1 1 0 0 1 .9.4 1.09 1.09 0 0 1 .4.9zm18.3-11.7a4.45 4.45 0 0 0 1 3.1 3.61 3.61 0 0 0 2.6.9 3.67 3.67 0 0 0 3.7-2.6 2.38 2.38 0 0 1 .6-1.1 2.66 2.66 0 0 1 1.2-.3h10a1 1 0 0 1 1.1 1.1 10.72 10.72 0 0 1 -2.4 7.1 13.75 13.75 0 0 1 -6 4.1 22.55 22.55 0 0 1 -8.1 1.3c-4.9 0-8.9-1.1-11.8-3.3s-4.5-5.5-4.7-10v-8.7q.3-6.6 4.8-9.9a19 19 0 0 1 11.6-3.4 24.55 24.55 0 0 1 8.1 1.3 13.75 13.75 0 0 1 6 4.1 11.28 11.28 0 0 1 2.4 7.1 1.11 1.11 0 0 1 -1.1 1.1h-10a2 2 0 0 1 -1.1-.3 2.59 2.59 0 0 1 -.7-1.1 4.12 4.12 0 0 0 -1.4-2.1 4.56 4.56 0 0 0 -2.2-.6 3.46 3.46 0 0 0 -2.6.9 4.45 4.45 0 0 0 -1 3.1v4.1c0 1.9-.1 3.2 0 4.1zm56.5-12.1a1 1 0 0 1 -.4.9 1.09 1.09 0 0 1 -.9.4h-8.2v22.5a1.32 1.32 0 0 1 -1.3 1.3h-9.8a1 1 0 0 1 -.9-.4 1.09 1.09 0 0 1 -.4-.9v-22.5h-8.1a1 1 0 0 1 -.9-.4 1.09 1.09 0 0 1 -.4-.9v-7.9a1 1 0 0 1 .4-.9 1.09 1.09 0 0 1 .9-.4h28.8a1 1 0 0 1 .9.4 1.09 1.09 0 0 1 .4.9z" fill="#0090bc"/><path d="m48.5 27.9-17 57.2-6.4-21.4c-4.1 4-9.6 4.8-13 4.9l13.7 46h11.5l25.8-86.8h-14.6z" fill="#ee215a"/><path d="m8.8 57.7c3.3-.1 8.9-.9 13-4.9l-7.3-24.8h-14.5z" fill="#0090bd"/><path d="m237.5 63.5h-25v-24h34.8c0-1.3.1-11.5.1-11.5h-48.6v86.7h48.8v-12.3h-35.1v-27.4h25z" fill="#ee215a"/></svg>